<?xml version="1.0" encoding="UTF-8" standalone="no"?>
<!DOCTYPE svg PUBLIC "-//W3C//DTD SVG 1.1//EN" "http://www.w3.org/Graphics/SVG/1.1/DTD/svg11.dtd">
<svg version="1.1" xmlns="http://www.w3.org/2000/svg" xmlns:xlink="http://www.w3.org/1999/xlink" preserveAspectRatio="xMidYMid meet" viewBox="0 0 24 24" width="24" height="24"><defs><path d="M16.33 3C17.44 3 18 3.56 18 4.67C18 11.67 18 15.56 18 16.33C18 17.44 17.44 18 16.33 18C9.33 18 5.44 18 4.67 18C3.56 18 3 17.44 3 16.33C3 9.33 3 5.44 3 4.67C3 3.56 3.56 3 4.67 3C11.67 3 15.56 3 16.33 3Z" id="c9ZyiDOAj"></path><path d="M18 13L13.83 8.83L4.67 18" id="apUyeEXY4"></path><path d="M7.58 6.33C6.89 6.33 6.33 6.89 6.33 7.58C6.33 8.27 6.89 8.83 7.58 8.83C8.27 8.83 8.83 8.27 8.83 7.58C8.83 6.89 8.27 6.33 7.58 6.33Z" id="aE25v7tv"></path><path d="M16.56 10.81L17.24 11.18L17.83 11.67L18.32 12.26L18.69 12.94L18.92 13.69L19.01 14.5L19.01 16.5L19.21 16.52L19.4 16.58L19.57 16.67L19.71 16.79L19.84 16.94L19.93 17.11L19.99 17.3L20.01 17.5L20.01 22.5L19.99 22.7L19.93 22.89L19.84 23.06L19.71 23.21L19.57 23.33L19.4 23.42L19.21 23.48L19.01 23.5L11.01 23.5L10.8 23.48L10.62 23.42L10.45 23.33L10.3 23.21L10.18 23.06L10.08 22.89L10.03 22.7L10.01 22.5L10.01 17.5L10.03 17.3L10.08 17.11L10.18 16.94L10.3 16.79L10.45 16.67L10.62 16.58L10.8 16.52L11.01 16.5L11.01 14.5L11.09 13.69L11.32 12.94L11.69 12.26L12.18 11.67L12.77 11.18L13.45 10.81L14.2 10.58L15.01 10.5L15.81 10.58L16.56 10.81ZM13.59 13.09L13.16 13.72L13.01 14.5L13.01 16.5L17.01 16.5L17.01 14.5L16.85 13.72L16.42 13.09L15.78 12.66L15.01 12.5L14.23 12.66L13.59 13.09Z" id="e2MYnkKIa4"></path></defs><g><g><g><use xlink:href="#c9ZyiDOAj" opacity="1" fill="currentColor" fill-opacity="0"></use><g><use xlink:href="#c9ZyiDOAj" opacity="1" fill-opacity="0" stroke="currentColor" stroke-width="2" stroke-opacity="1"></use></g></g><g><use xlink:href="#apUyeEXY4" opacity="1" fill="currentColor" fill-opacity="0"></use><g><use xlink:href="#apUyeEXY4" opacity="1" fill-opacity="0" stroke="currentColor" stroke-width="1" stroke-opacity="1"></use></g></g><g><use xlink:href="#aE25v7tv" opacity="1" fill="currentColor" fill-opacity="0"></use><g><use xlink:href="#aE25v7tv" opacity="1" fill-opacity="0" stroke="currentColor" stroke-width="1" stroke-opacity="1"></use></g></g><g><use xlink:href="#e2MYnkKIa4" opacity="1" stroke="#00000000" stroke-opacity="1" fill="currentColor" fill-opacity="1"></use></g></g></g></svg>
